<svg xmlns="http://www.w3.org/2000/svg" viewBox="0 0 12.66 10.69"><defs><style>.cls-1{fill:#ff1d25;}</style></defs><title>Asset 12</title><g id="Layer_2" data-name="Layer 2"><g id="Layer_1-2" data-name="Layer 1"><path class="cls-1" d="M11,8.53H3.76L2,1H.5A.5.5,0,0,1,0,.5.5.5,0,0,1,.5,0H2.84L4.56,7.53H11a.5.5,0,1,1,0,1Z"/><path class="cls-1" d="M3.81,7a.5.5,0,0,1-.06-1l7.12-.81.66-3H2.72a.5.5,0,0,1-.5-.5.5.5,0,0,1,.5-.5h9.44a.51.51,0,0,1,.39.19.49.49,0,0,1,.09.42l-.87,3.93a.5.5,0,0,1-.43.38L3.87,7Z"/><circle class="cls-1" cx="5.1" cy="9.83" r="0.86"/><circle class="cls-1" cx="9.78" cy="9.83" r="0.86"/><path class="cls-1" d="M5.25,6.44A.25.25,0,0,1,5,6.24L4,1.79a.25.25,0,1,1,.48-.11l1,4.45a.25.25,0,0,1-.18.3Z"/><path class="cls-1" d="M6.94,6.31a.24.24,0,0,1-.24-.2l-1-4.32a.25.25,0,0,1,.19-.3.25.25,0,0,1,.3.19L7.18,6A.25.25,0,0,1,7,6.3Z"/><path class="cls-1" d="M8.71,6.2A.26.26,0,0,1,8.46,6l-1-4.21A.25.25,0,1,1,8,1.68L9,5.89a.25.25,0,0,1-.19.3Z"/><path class="cls-1" d="M10.45,5.82a.26.26,0,0,1-.25-.19L9.33,1.79a.25.25,0,0,1,.19-.3.25.25,0,0,1,.3.19l.87,3.84a.25.25,0,0,1-.19.3Z"/><path class="cls-1" d="M11.58,3.65H3.13a.25.25,0,0,1,0-.5h8.45a.25.25,0,0,1,0,.5Z"/><path class="cls-1" d="M3.75,5.05a.25.25,0,0,1,0-.5l7.68-.13h0a.25.25,0,0,1,.25.25.25.25,0,0,1-.25.25l-7.69.13Z"/></g></g></svg>